<?xml version="1.0" encoding="UTF-8" standalone="no"?>
<svg
   width="400"
   height="400"
   version="1.1"
   id="svg9"
   sodipodi:docname="teeth-pattern-blue.svg"
   inkscape:version="1.4.3 (0d15f75042, 2025-12-25)"
   xmlns:inkscape="http://www.inkscape.org/namespaces/inkscape"
   xmlns:sodipodi="http://sodipodi.sourceforge.net/DTD/sodipodi-0.dtd"
   xmlns:xlink="http://www.w3.org/1999/xlink"
   xmlns="http://www.w3.org/2000/svg"
   xmlns:svg="http://www.w3.org/2000/svg">
  <sodipodi:namedview
     id="namedview9"
     pagecolor="#ffffff"
     bordercolor="#000000"
     borderopacity="0.25"
     inkscape:showpageshadow="2"
     inkscape:pageopacity="0.0"
     inkscape:pagecheckerboard="0"
     inkscape:deskcolor="#d1d1d1"
     inkscape:zoom="2.0525"
     inkscape:cx="199.75639"
     inkscape:cy="200"
     inkscape:window-width="1920"
     inkscape:window-height="1022"
     inkscape:window-x="0"
     inkscape:window-y="0"
     inkscape:window-maximized="1"
     inkscape:current-layer="svg9" />
  <defs
     id="defs1">
    <!-- Define a more realistic tooth shape (flat bottom, roots on top) -->
    <path
       id="tooth"
       d="M25,40                          C30,40 35,35 35,30                          C35,20 40,10 30,5                          C20,0 15,10 15,10                          C15,10 10,0 0,5                          C-10,10 -5,20 -5,30                          C-5,35 0,40 5,40                          Z"
       fill="none"
       stroke="#ffeeff"
       stroke-width="1.2"
       transform="translate(20, 20)" />
  </defs>
  <!-- Set the background rectangle -->
  <rect
     width="100%"
     height="100%"
     fill="#4bc35b"
     id="rect1"
     style="fill:#4b9cc3;fill-opacity:1" />
  <!-- Randomly placed and rotated teeth -->
  <use
     xlink:href="#tooth"
     x="50"
     y="60"
     opacity="0.22"
     transform="rotate(5, 50, 60)"
     id="use1" />
  <use
     xlink:href="#tooth"
     x="280"
     y="90"
     opacity="0.22"
     transform="rotate(-12, 280, 90)"
     id="use2" />
  <use
     xlink:href="#tooth"
     x="120"
     y="150"
     opacity="0.22"
     transform="rotate(18, 120, 150)"
     id="use3" />
  <use
     xlink:href="#tooth"
     x="320"
     y="200"
     opacity="0.22"
     transform="rotate(-8, 320, 200)"
     id="use4" />
  <use
     xlink:href="#tooth"
     x="180"
     y="250"
     opacity="0.22"
     transform="rotate(25, 180, 250)"
     id="use5" />
  <use
     xlink:href="#tooth"
     x="70"
     y="300"
     opacity="0.22"
     transform="rotate(-15, 70, 300)"
     id="use6" />
  <use
     xlink:href="#tooth"
     x="250"
     y="330"
     opacity="0.22"
     transform="rotate(10, 250, 330)"
     id="use7" />
  <use
     xlink:href="#tooth"
     x="140"
     y="50"
     opacity="0.22"
     transform="rotate(-20, 140, 50)"
     id="use8" />
  <use
     xlink:href="#tooth"
     x="300"
     y="140"
     opacity="0.22"
     transform="rotate(15, 300, 140)"
     id="use9" />
</svg>
